HIERARCHY
ROOT hip
{
	OFFSET 0.000000 0.000000 0.000000 
	CHANNELS 6 Xposition Yposition Zposition Xrotation Zrotation Yrotation
	JOINT abdomen
	{
		OFFSET 0.000000 3.402643 0.000000 
		CHANNELS 3 Xrotation Zrotation Yrotation
		JOINT chest
		{
			OFFSET 0.000000 8.438565 -0.680529 
			CHANNELS 3 Xrotation Zrotation Yrotation
			JOINT neck
			{
				OFFSET 0.000000 10.207942 -0.272212 
				CHANNELS 3 Xrotation Zrotation Yrotation
				JOINT head
				{
					OFFSET 0.000000 3.130431 0.000000 
					CHANNELS 3 Xrotation Zrotation Yrotation
					End Site
					{
						OFFSET 0.000000 3.130435 0.000000 
					}
				}
			}
			JOINT lCollar
			{
				OFFSET 3.470700 6.669187 -0.816635 
				CHANNELS 3 Yrotation Zrotation Xrotation
				JOINT lShldr
				{
					OFFSET 3.198488 0.000000 0.000000 
					CHANNELS 3 Zrotation Yrotation Xrotation
					JOINT lForeArm
					{
						OFFSET 10.139888 0.000000 0.000000 
						CHANNELS 3 Yrotation Zrotation Xrotation
						JOINT lHand
						{
							OFFSET 8.370511 0.000000 0.000000 
							CHANNELS 3 Zrotation Yrotation Xrotation
							End Site
							{
								OFFSET 4.083176 0.000000 0.000000 
							}
						}
					}
				}
			}
			JOINT rCollar
			{
				OFFSET -3.470700 6.669187 -0.816635 
				CHANNELS 3 Yrotation Zrotation Xrotation
				JOINT rShldr
				{
					OFFSET -3.198488 0.000000 0.000000 
					CHANNELS 3 Zrotation Yrotation Xrotation
					JOINT rForeArm
					{
						OFFSET -10.139888 0.000000 0.000000 
						CHANNELS 3 Yrotation Zrotation Xrotation
						JOINT rHand
						{
							OFFSET -8.370511 0.000000 0.000000 
							CHANNELS 3 Zrotation Yrotation Xrotation
							End Site
							{
								OFFSET -4.083176 0.000000 0.000000 
							}
						}
					}
				}
			}
		}
	}
	JOINT lThigh
	{
		OFFSET 5.308129 -1.633274 1.361059 
		CHANNELS 3 Xrotation Zrotation Yrotation
		JOINT lShin
		{
			OFFSET -2.041588 -20.007561 0.000000 
			CHANNELS 3 Xrotation Zrotation Yrotation
			JOINT lFoot
			{
				OFFSET 0.000000 -19.190928 -1.224953 
				CHANNELS 3 Xrotation Yrotation Zrotation
				End Site
				{
					OFFSET 0.000000 -2.449906 4.627600 
				}
			}
		}
	}
	JOINT rThigh
	{
		OFFSET -5.308129 -1.633274 1.361059 
		CHANNELS 3 Xrotation Zrotation Yrotation
		JOINT rShin
		{
			OFFSET 2.041588 -20.007561 0.000000 
			CHANNELS 3 Xrotation Zrotation Yrotation
			JOINT rFoot
			{
				OFFSET 0.000000 -19.190928 -1.224953 
				CHANNELS 3 Xrotation Yrotation Zrotation
				End Site
				{
					OFFSET 0.000000 -2.449906 4.627600 
				}
			}
		}
	}
}
MOTION
Frames: 16
Frame Time: 0.033333
28.104254 43.436966 37.559616 -4.581836 -5.519523 -53.054626 -23.081680 -3.434572 0.648769 39.162247 3.260600 -0.734217 5.285600 -13.020768 26.237156 -15.959919 5.004837 23.062632 -5.940789 -15.223389 12.422370 -54.031143 -36.537315 18.863750 -68.767334 -0.034631 -21.356197 14.378263 -30.643356 -3.842527 16.923901 7.972667 21.753614 63.304966 58.336460 49.900730 30.366667 -3.791336 -39.326466 -26.969019 48.759964 -10.777060 -23.363297 18.734543 6.489942 28.211853 1.600968 7.452415 5.681691 -0.159564 -13.710131 -7.810883 -17.296267 -12.354848 48.022945 3.338244 -16.125799 -24.185984 -4.034130 14.127398 
28.090017 43.430454 37.528740 -4.582215 -5.568196 -53.080040 -23.081680 -3.434572 0.648769 39.032127 3.253238 -0.870584 5.500160 -12.794981 26.232456 -15.890567 4.947734 23.174688 -6.081696 -15.149697 12.651222 -53.929165 -36.561024 18.403843 -68.885956 0.082081 -21.138973 14.077780 -30.345875 -3.738888 17.080076 7.850440 22.000565 63.446106 58.567383 49.855869 30.263929 -3.798311 -39.452259 -27.001574 48.712559 -10.866851 -23.303837 18.763029 6.374267 28.115126 1.645204 7.543323 5.849339 -0.166118 -13.827295 -7.772720 -17.261520 -12.447202 48.040676 3.337331 -16.075609 -24.284594 -3.997143 14.107021 
28.104460 43.421909 37.485249 -4.572403 -5.568272 -53.090755 -23.081680 -3.434572 0.648769 39.056046 3.335282 -0.777972 5.498552 -12.767004 26.411865 -15.685215 4.988958 23.372440 -6.067299 -15.029159 12.647102 -53.979187 -36.808216 18.337088 -68.934616 0.068047 -21.651253 13.407291 -30.299170 -3.460189 17.075190 7.625857 21.966919 63.213783 58.466534 49.517258 30.912924 -3.921481 -39.276119 -26.959703 48.192169 -10.647263 -23.325022 18.754932 6.149189 27.975349 1.634952 7.700908 6.077637 -0.168529 -13.868605 -7.919129 -17.231544 -12.375146 48.173061 3.417748 -16.040972 -24.368166 -4.053010 14.072240 
28.039076 43.421097 37.389683 -4.691086 -5.684145 -52.806183 -23.081680 -3.434572 0.648769 38.798332 3.386076 -0.546298 5.176566 -13.079618 26.573771 -15.181057 5.450004 23.258543 -5.758113 -14.995250 12.179260 -54.640266 -36.534061 18.836006 -68.684128 -0.125676 -22.221912 12.292514 -30.706535 -3.065178 16.890078 7.170762 21.816690 63.929295 58.032272 49.903160 31.522535 -4.051894 -38.737705 -27.203682 47.441822 -10.668882 -23.040392 18.704727 5.793519 27.413454 1.600952 8.263644 6.468802 -0.345388 -13.895404 -7.732985 -16.878174 -11.937863 48.198639 3.601666 -16.133776 -24.568361 -4.365486 13.919153 
27.931305 43.417843 37.277149 -4.858998 -5.809270 -52.398197 -23.081680 -3.434572 0.648769 38.527981 3.397091 -0.384496 5.069192 -13.329011 26.609192 -14.915383 6.141098 23.019754 -5.543447 -15.099337 11.894150 -54.978622 -35.924137 18.995094 -69.011864 -0.293741 -21.887543 12.232144 -30.880850 -3.168176 16.599859 6.808325 21.656225 64.430000 57.339966 50.051640 32.728073 -4.311114 -37.922138 -27.393248 46.417603 -10.462754 -22.625849 18.739164 5.509507 26.716848 1.590730 8.679766 6.926483 -0.498485 -13.991755 -7.421012 -16.441015 -11.529375 48.218620 3.777591 -16.338457 -24.902851 -4.550214 13.732726 
27.775772 43.401566 37.196228 -5.106737 -6.060015 -51.882298 -23.081680 -3.434572 0.648769 38.284233 3.362282 -0.282587 5.131011 -13.264003 26.555979 -14.872923 6.606728 22.819422 -5.437353 -15.203665 11.909316 -55.141232 -35.273926 18.996571 -69.619339 -0.385794 -21.040451 13.074363 -30.836266 -3.584082 16.053831 6.464380 21.316782 65.445526 56.686520 50.997353 33.612984 -4.344659 -37.498177 -27.670427 45.773022 -10.386204 -22.078690 18.807194 5.926732 26.161362 1.831390 8.639071 7.108763 -0.791544 -14.041550 -6.728265 -15.954776 -11.304384 48.062801 3.797419 -16.635656 -25.259964 -4.652379 13.691168 
27.617754 43.372276 37.132969 -5.404541 -6.368283 -51.323059 -23.081680 -3.434572 0.648769 38.200581 3.453016 -0.205022 5.219137 -13.490447 26.471426 -15.172084 6.873367 22.612028 -5.261804 -15.557467 11.817416 -55.200642 -34.653614 18.836622 -69.646919 -0.408026 -21.036896 12.466242 -31.275248 -3.370116 15.717090 6.152225 21.160168 66.435448 56.304581 51.854256 34.069717 -4.346448 -37.334740 -27.721281 45.294567 -10.235867 -21.546465 18.899628 6.514559 25.822914 2.167278 8.182970 7.093650 -0.912457 -14.170582 -5.994636 -15.402911 -11.054611 47.991096 3.795822 -17.031284 -25.641058 -4.688405 13.589271 
27.471577 43.346645 37.076660 -5.673364 -6.676419 -50.657711 -23.081680 -3.434572 0.648769 38.269855 3.424095 -0.101858 5.069979 -13.785212 26.392578 -15.816685 7.162429 22.345440 -5.059323 -15.900105 11.637560 -55.628014 -34.445183 19.107065 -68.949051 -0.364752 -20.929180 11.803605 -31.900497 -3.110602 15.442611 5.763281 20.946724 67.390099 55.953102 52.886730 34.088745 -4.213234 -37.488499 -28.275442 45.045837 -10.547197 -21.087749 19.016806 7.016552 25.416866 2.391563 7.614333 7.276567 -0.970087 -14.239364 -5.214408 -14.868116 -10.890339 47.828445 3.816898 -17.407265 -25.988510 -4.772105 13.534990 
27.302496 43.294163 37.019257 -5.932852 -6.984248 -49.755173 -23.081680 -3.434572 0.648769 38.363209 3.439468 0.196049 4.366094 -14.072047 26.281977 -16.325037 7.481340 21.890322 -4.855078 -16.337637 11.406382 -55.846764 -34.552849 19.954346 -67.655975 -0.434453 -21.807060 11.064830 -32.817745 -2.902378 15.277689 5.103465 20.846764 68.147087 55.258945 53.471798 34.461716 -4.203715 -37.702255 -28.664440 44.490211 -10.565690 -21.011387 19.057795 6.804812 25.429287 2.524332 7.270926 7.356068 -0.910074 -14.288180 -4.345236 -14.398993 -11.139532 47.774269 3.746057 -17.665064 -26.490019 -4.822111 13.606776 
27.068928 43.221336 36.967953 -6.329851 -7.231508 -48.409206 -23.081680 -3.434572 0.648769 38.489712 3.265616 0.601837 3.254379 -14.299725 25.976709 -16.564865 8.094123 21.058718 -4.777577 -17.157475 11.535835 -55.321224 -35.484524 21.120655 -65.275444 -0.234920 -23.334747 10.182595 -33.800877 -2.850114 15.221844 3.925200 20.887774 69.664139 54.737442 54.634327 34.277493 -4.084484 -38.571003 -29.515306 43.735470 -10.770770 -21.072342 18.894468 6.232380 25.587545 2.547959 6.883350 7.377841 -0.879001 -14.308250 -3.202919 -14.007224 -11.844222 47.765564 3.551053 -17.944431 -27.108700 -4.956310 13.793163 
26.742601 43.124916 36.882721 -6.885742 -7.524094 -46.379356 -23.081680 -3.434572 0.648769 38.716969 2.609166 1.176898 1.781505 -13.436427 25.405598 -16.194096 8.720380 20.100431 -4.740132 -17.983643 11.947152 -54.251930 -37.763596 22.632523 -61.780788 0.436467 -26.235241 7.625073 -34.383183 -2.127616 15.480309 2.246922 21.247740 70.952950 54.911892 55.581402 33.656162 -3.798794 -40.669083 -30.211521 42.688763 -11.210844 -21.225622 18.666927 5.471034 25.754486 2.528231 6.125264 7.429894 -1.036008 -14.291664 -1.660780 -13.368015 -12.676094 47.703396 3.385218 -18.645912 -27.717340 -5.320868 14.085105 
26.264849 42.990253 36.765469 -7.598490 -7.715686 -43.270920 -23.081680 -3.434572 0.648769 38.751575 1.489624 2.377410 0.765437 -12.305105 24.033768 -16.053181 9.834979 18.143051 -4.808444 -18.814932 12.239758 -52.729992 -41.474255 25.487053 -56.160713 1.270550 -32.212009 3.975339 -35.198761 -0.976374 15.658112 -0.168373 21.059607 72.336098 55.846561 58.409027 32.525360 -3.008470 -45.349808 -31.498796 41.131706 -12.396514 -21.582296 18.437761 4.935437 25.839531 2.312061 4.351677 7.577652 -1.449382 -14.021233 0.302335 -12.274760 -13.697320 47.629711 3.245825 -20.250500 -28.475243 -5.929114 14.621389 
25.663946 42.860878 36.599964 -8.200280 -7.743262 -39.523373 -23.081680 -3.434572 0.648769 38.470947 0.182074 3.559778 0.565678 -10.621335 21.566425 -15.363349 10.800358 15.388271 -4.949788 -19.040644 12.237671 -51.896042 -45.279991 27.634504 -51.016289 3.344614 -39.526012 -0.936849 -33.159981 1.177863 16.348845 -2.010924 20.915375 73.619308 59.321648 62.791458 29.873642 -2.378202 -52.084759 -30.921154 38.081730 -12.568725 -22.243156 18.141838 4.492743 25.736423 2.225172 1.606730 7.872342 -1.776956 -13.776571 2.253294 -10.863717 -14.623085 47.427422 3.627926 -22.855240 -29.183186 -6.426585 15.031047 
25.019228 42.693668 36.465912 -8.968836 -7.727788 -35.620701 -23.081680 -3.434572 0.648769 38.453007 -1.259589 4.844718 1.924152 -8.873693 18.243521 -14.768886 10.892304 12.267716 -5.405215 -19.425001 12.370662 -49.790485 -48.393421 25.588720 -48.320511 6.168647 -46.087475 -5.349720 -28.456450 3.187880 17.234791 -3.820948 20.467003 75.276695 65.290192 68.106224 26.838837 -2.295864 -58.818134 -28.517328 33.175392 -11.537584 -23.121317 17.496901 4.091529 26.286432 2.543148 -1.570052 7.718005 -1.866763 -13.761771 4.429635 -9.672958 -16.321079 47.292805 3.990248 -25.465425 -29.997032 -6.548803 15.703626 
24.415924 42.544765 36.313877 -9.676670 -7.644897 -31.748556 -23.081680 -3.434572 0.648769 38.861080 -2.671219 6.070586 3.452028 -6.437203 14.428272 -13.861865 9.814887 9.228142 -5.751622 -19.225748 11.803096 -46.953156 -50.177143 19.046556 -49.197529 9.485030 -51.941101 -8.586981 -21.145361 4.639120 18.916262 -5.500780 20.166212 77.142059 74.714417 74.166321 21.990263 -2.087491 -64.212593 -24.989618 26.483166 -10.255135 -23.937836 16.517824 3.003285 26.408945 3.015241 -4.401246 7.826753 -1.634961 -14.001035 6.350214 -8.372340 -17.810455 46.979412 4.468030 -28.025099 -30.433069 -6.870292 16.573822 
23.745535 42.376331 36.353260 -10.402778 -7.512637 -28.156572 -23.081680 -3.434572 0.648769 39.276180 -4.259661 8.155042 6.084543 -4.160464 9.934242 -14.884142 7.323524 5.626361 -6.019653 -18.836187 11.096325 -43.908016 -51.919025 9.293260 -52.165535 12.328778 -55.397141 -9.498763 -13.949276 4.633358 21.604740 -8.245640 20.342283 75.472672 85.768211 75.680794 16.281515 -1.400219 -66.170151 -21.107594 19.586128 -9.266318 -24.959051 15.330884 1.445539 27.680759 3.806288 -6.553849 7.095287 -1.292506 -14.561149 8.720267 -7.295321 -19.955025 46.553040 4.678912 -29.685642 -30.771040 -7.036659 17.778431 
